<mxfile host="app.diagrams.net" modified="2024-05-27T15:45:04.417Z" agent="Mozilla/5.0 (Windows NT 10.0; Win64; x64) AppleWebKit/537.36 (KHTML, like Gecko) Chrome/124.0.0.0 Safari/537.36" etag="zm1Srk68RNDRhFmrx3sv" version="21.3.2" type="device">
  <diagram id="C5RBs43oDa-KdzZeNtuy" name="Page-1">
    <mxGraphModel dx="1434" dy="780" grid="1" gridSize="10" guides="1" tooltips="1" connect="1" arrows="1" fold="1" page="1" pageScale="1" pageWidth="827" pageHeight="1169" math="0" shadow="0">
      <root>
        <mxCell id="WIyWlLk6GJQsqaUBKTNV-0" />
        <mxCell id="WIyWlLk6GJQsqaUBKTNV-1" parent="WIyWlLk6GJQsqaUBKTNV-0" />
        <mxCell id="HAIDnJBw_TWGb5qqiBey-1" value="Zoo" style="swimlane;fontStyle=0;childLayout=stackLayout;horizontal=1;startSize=26;fillColor=none;horizontalStack=0;resizeParent=1;resizeParentMax=0;resizeLast=0;collapsible=1;marginBottom=0;whiteSpace=wrap;html=1;" vertex="1" parent="WIyWlLk6GJQsqaUBKTNV-1">
          <mxGeometry x="313" y="430" width="202" height="268" as="geometry" />
        </mxCell>
        <mxCell id="HAIDnJBw_TWGb5qqiBey-2" value="+ animals" style="text;strokeColor=none;fillColor=none;align=left;verticalAlign=top;spacingLeft=4;spacingRight=4;overflow=hidden;rotatable=0;points=[[0,0.5],[1,0.5]];portConstraint=eastwest;whiteSpace=wrap;html=1;" vertex="1" parent="HAIDnJBw_TWGb5qqiBey-1">
          <mxGeometry y="26" width="202" height="26" as="geometry" />
        </mxCell>
        <mxCell id="HAIDnJBw_TWGb5qqiBey-3" value="+ foodInventory" style="text;strokeColor=none;fillColor=none;align=left;verticalAlign=top;spacingLeft=4;spacingRight=4;overflow=hidden;rotatable=0;points=[[0,0.5],[1,0.5]];portConstraint=eastwest;whiteSpace=wrap;html=1;" vertex="1" parent="HAIDnJBw_TWGb5qqiBey-1">
          <mxGeometry y="52" width="202" height="26" as="geometry" />
        </mxCell>
        <mxCell id="HAIDnJBw_TWGb5qqiBey-4" value="+ employees&lt;br&gt;" style="text;strokeColor=none;fillColor=none;align=left;verticalAlign=top;spacingLeft=4;spacingRight=4;overflow=hidden;rotatable=0;points=[[0,0.5],[1,0.5]];portConstraint=eastwest;whiteSpace=wrap;html=1;" vertex="1" parent="HAIDnJBw_TWGb5qqiBey-1">
          <mxGeometry y="78" width="202" height="26" as="geometry" />
        </mxCell>
        <mxCell id="HAIDnJBw_TWGb5qqiBey-52" value="+ enclosures" style="text;strokeColor=none;fillColor=none;align=left;verticalAlign=top;spacingLeft=4;spacingRight=4;overflow=hidden;rotatable=0;points=[[0,0.5],[1,0.5]];portConstraint=eastwest;whiteSpace=wrap;html=1;" vertex="1" parent="HAIDnJBw_TWGb5qqiBey-1">
          <mxGeometry y="104" width="202" height="26" as="geometry" />
        </mxCell>
        <mxCell id="HAIDnJBw_TWGb5qqiBey-53" value="" style="line;strokeWidth=1;fillColor=none;align=left;verticalAlign=middle;spacingTop=-1;spacingLeft=3;spacingRight=3;rotatable=0;labelPosition=right;points=[];portConstraint=eastwest;strokeColor=inherit;" vertex="1" parent="HAIDnJBw_TWGb5qqiBey-1">
          <mxGeometry y="130" width="202" height="8" as="geometry" />
        </mxCell>
        <mxCell id="HAIDnJBw_TWGb5qqiBey-58" value="+ inventory(): void" style="text;strokeColor=none;fillColor=none;align=left;verticalAlign=top;spacingLeft=4;spacingRight=4;overflow=hidden;rotatable=0;points=[[0,0.5],[1,0.5]];portConstraint=eastwest;whiteSpace=wrap;html=1;" vertex="1" parent="HAIDnJBw_TWGb5qqiBey-1">
          <mxGeometry y="138" width="202" height="26" as="geometry" />
        </mxCell>
        <mxCell id="HAIDnJBw_TWGb5qqiBey-67" value="+ addAnimal(IAnimal): void" style="text;strokeColor=none;fillColor=none;align=left;verticalAlign=top;spacingLeft=4;spacingRight=4;overflow=hidden;rotatable=0;points=[[0,0.5],[1,0.5]];portConstraint=eastwest;whiteSpace=wrap;html=1;" vertex="1" parent="HAIDnJBw_TWGb5qqiBey-1">
          <mxGeometry y="164" width="202" height="26" as="geometry" />
        </mxCell>
        <mxCell id="HAIDnJBw_TWGb5qqiBey-66" value="+ addEmployess(IEmployee): void" style="text;strokeColor=none;fillColor=none;align=left;verticalAlign=top;spacingLeft=4;spacingRight=4;overflow=hidden;rotatable=0;points=[[0,0.5],[1,0.5]];portConstraint=eastwest;whiteSpace=wrap;html=1;" vertex="1" parent="HAIDnJBw_TWGb5qqiBey-1">
          <mxGeometry y="190" width="202" height="26" as="geometry" />
        </mxCell>
        <mxCell id="HAIDnJBw_TWGb5qqiBey-68" value="+ addFood(IFood): void" style="text;strokeColor=none;fillColor=none;align=left;verticalAlign=top;spacingLeft=4;spacingRight=4;overflow=hidden;rotatable=0;points=[[0,0.5],[1,0.5]];portConstraint=eastwest;whiteSpace=wrap;html=1;" vertex="1" parent="HAIDnJBw_TWGb5qqiBey-1">
          <mxGeometry y="216" width="202" height="26" as="geometry" />
        </mxCell>
        <mxCell id="HAIDnJBw_TWGb5qqiBey-69" value="+ addEnclosure(Enclosure): void" style="text;strokeColor=none;fillColor=none;align=left;verticalAlign=top;spacingLeft=4;spacingRight=4;overflow=hidden;rotatable=0;points=[[0,0.5],[1,0.5]];portConstraint=eastwest;whiteSpace=wrap;html=1;" vertex="1" parent="HAIDnJBw_TWGb5qqiBey-1">
          <mxGeometry y="242" width="202" height="26" as="geometry" />
        </mxCell>
        <mxCell id="HAIDnJBw_TWGb5qqiBey-17" value="Employee" style="swimlane;fontStyle=0;childLayout=stackLayout;horizontal=1;startSize=26;fillColor=none;horizontalStack=0;resizeParent=1;resizeParentMax=0;resizeLast=0;collapsible=1;marginBottom=0;whiteSpace=wrap;html=1;" vertex="1" parent="WIyWlLk6GJQsqaUBKTNV-1">
          <mxGeometry x="434" y="180" width="160" height="104" as="geometry" />
        </mxCell>
        <mxCell id="HAIDnJBw_TWGb5qqiBey-18" value="+ id" style="text;strokeColor=none;fillColor=none;align=left;verticalAlign=top;spacingLeft=4;spacingRight=4;overflow=hidden;rotatable=0;points=[[0,0.5],[1,0.5]];portConstraint=eastwest;whiteSpace=wrap;html=1;" vertex="1" parent="HAIDnJBw_TWGb5qqiBey-17">
          <mxGeometry y="26" width="160" height="26" as="geometry" />
        </mxCell>
        <mxCell id="HAIDnJBw_TWGb5qqiBey-19" value="+ name" style="text;strokeColor=none;fillColor=none;align=left;verticalAlign=top;spacingLeft=4;spacingRight=4;overflow=hidden;rotatable=0;points=[[0,0.5],[1,0.5]];portConstraint=eastwest;whiteSpace=wrap;html=1;" vertex="1" parent="HAIDnJBw_TWGb5qqiBey-17">
          <mxGeometry y="52" width="160" height="26" as="geometry" />
        </mxCell>
        <mxCell id="HAIDnJBw_TWGb5qqiBey-20" value="+ position" style="text;strokeColor=none;fillColor=none;align=left;verticalAlign=top;spacingLeft=4;spacingRight=4;overflow=hidden;rotatable=0;points=[[0,0.5],[1,0.5]];portConstraint=eastwest;whiteSpace=wrap;html=1;" vertex="1" parent="HAIDnJBw_TWGb5qqiBey-17">
          <mxGeometry y="78" width="160" height="26" as="geometry" />
        </mxCell>
        <mxCell id="HAIDnJBw_TWGb5qqiBey-38" style="edgeStyle=orthogonalEdgeStyle;rounded=0;orthogonalLoop=1;jettySize=auto;html=1;entryX=1;entryY=0.5;entryDx=0;entryDy=0;" edge="1" parent="WIyWlLk6GJQsqaUBKTNV-1" source="HAIDnJBw_TWGb5qqiBey-21" target="HAIDnJBw_TWGb5qqiBey-3">
          <mxGeometry relative="1" as="geometry" />
        </mxCell>
        <mxCell id="HAIDnJBw_TWGb5qqiBey-21" value="Enclosure" style="swimlane;fontStyle=0;childLayout=stackLayout;horizontal=1;startSize=26;fillColor=none;horizontalStack=0;resizeParent=1;resizeParentMax=0;resizeLast=0;collapsible=1;marginBottom=0;whiteSpace=wrap;html=1;" vertex="1" parent="WIyWlLk6GJQsqaUBKTNV-1">
          <mxGeometry x="624" y="180" width="140" height="104" as="geometry" />
        </mxCell>
        <mxCell id="HAIDnJBw_TWGb5qqiBey-22" value="+ id" style="text;strokeColor=none;fillColor=none;align=left;verticalAlign=top;spacingLeft=4;spacingRight=4;overflow=hidden;rotatable=0;points=[[0,0.5],[1,0.5]];portConstraint=eastwest;whiteSpace=wrap;html=1;" vertex="1" parent="HAIDnJBw_TWGb5qqiBey-21">
          <mxGeometry y="26" width="140" height="26" as="geometry" />
        </mxCell>
        <mxCell id="HAIDnJBw_TWGb5qqiBey-23" value="+ type" style="text;strokeColor=none;fillColor=none;align=left;verticalAlign=top;spacingLeft=4;spacingRight=4;overflow=hidden;rotatable=0;points=[[0,0.5],[1,0.5]];portConstraint=eastwest;whiteSpace=wrap;html=1;" vertex="1" parent="HAIDnJBw_TWGb5qqiBey-21">
          <mxGeometry y="52" width="140" height="26" as="geometry" />
        </mxCell>
        <mxCell id="HAIDnJBw_TWGb5qqiBey-24" value="+ size" style="text;strokeColor=none;fillColor=none;align=left;verticalAlign=top;spacingLeft=4;spacingRight=4;overflow=hidden;rotatable=0;points=[[0,0.5],[1,0.5]];portConstraint=eastwest;whiteSpace=wrap;html=1;" vertex="1" parent="HAIDnJBw_TWGb5qqiBey-21">
          <mxGeometry y="78" width="140" height="26" as="geometry" />
        </mxCell>
        <mxCell id="HAIDnJBw_TWGb5qqiBey-27" value="Food" style="swimlane;fontStyle=0;childLayout=stackLayout;horizontal=1;startSize=26;fillColor=none;horizontalStack=0;resizeParent=1;resizeParentMax=0;resizeLast=0;collapsible=1;marginBottom=0;whiteSpace=wrap;html=1;" vertex="1" parent="WIyWlLk6GJQsqaUBKTNV-1">
          <mxGeometry x="248" y="180" width="160" height="104" as="geometry" />
        </mxCell>
        <mxCell id="HAIDnJBw_TWGb5qqiBey-28" value="+ id" style="text;strokeColor=none;fillColor=none;align=left;verticalAlign=top;spacingLeft=4;spacingRight=4;overflow=hidden;rotatable=0;points=[[0,0.5],[1,0.5]];portConstraint=eastwest;whiteSpace=wrap;html=1;" vertex="1" parent="HAIDnJBw_TWGb5qqiBey-27">
          <mxGeometry y="26" width="160" height="26" as="geometry" />
        </mxCell>
        <mxCell id="HAIDnJBw_TWGb5qqiBey-29" value="+ name" style="text;strokeColor=none;fillColor=none;align=left;verticalAlign=top;spacingLeft=4;spacingRight=4;overflow=hidden;rotatable=0;points=[[0,0.5],[1,0.5]];portConstraint=eastwest;whiteSpace=wrap;html=1;" vertex="1" parent="HAIDnJBw_TWGb5qqiBey-27">
          <mxGeometry y="52" width="160" height="26" as="geometry" />
        </mxCell>
        <mxCell id="HAIDnJBw_TWGb5qqiBey-30" value="+ quantity" style="text;strokeColor=none;fillColor=none;align=left;verticalAlign=top;spacingLeft=4;spacingRight=4;overflow=hidden;rotatable=0;points=[[0,0.5],[1,0.5]];portConstraint=eastwest;whiteSpace=wrap;html=1;" vertex="1" parent="HAIDnJBw_TWGb5qqiBey-27">
          <mxGeometry y="78" width="160" height="26" as="geometry" />
        </mxCell>
        <mxCell id="HAIDnJBw_TWGb5qqiBey-31" value="Animal" style="swimlane;fontStyle=0;childLayout=stackLayout;horizontal=1;startSize=26;fillColor=none;horizontalStack=0;resizeParent=1;resizeParentMax=0;resizeLast=0;collapsible=1;marginBottom=0;whiteSpace=wrap;html=1;" vertex="1" parent="WIyWlLk6GJQsqaUBKTNV-1">
          <mxGeometry x="64" y="180" width="160" height="104" as="geometry" />
        </mxCell>
        <mxCell id="HAIDnJBw_TWGb5qqiBey-32" value="+ id" style="text;strokeColor=none;fillColor=none;align=left;verticalAlign=top;spacingLeft=4;spacingRight=4;overflow=hidden;rotatable=0;points=[[0,0.5],[1,0.5]];portConstraint=eastwest;whiteSpace=wrap;html=1;" vertex="1" parent="HAIDnJBw_TWGb5qqiBey-31">
          <mxGeometry y="26" width="160" height="26" as="geometry" />
        </mxCell>
        <mxCell id="HAIDnJBw_TWGb5qqiBey-33" value="+ name" style="text;strokeColor=none;fillColor=none;align=left;verticalAlign=top;spacingLeft=4;spacingRight=4;overflow=hidden;rotatable=0;points=[[0,0.5],[1,0.5]];portConstraint=eastwest;whiteSpace=wrap;html=1;" vertex="1" parent="HAIDnJBw_TWGb5qqiBey-31">
          <mxGeometry y="52" width="160" height="26" as="geometry" />
        </mxCell>
        <mxCell id="HAIDnJBw_TWGb5qqiBey-34" value="+ species" style="text;strokeColor=none;fillColor=none;align=left;verticalAlign=top;spacingLeft=4;spacingRight=4;overflow=hidden;rotatable=0;points=[[0,0.5],[1,0.5]];portConstraint=eastwest;whiteSpace=wrap;html=1;" vertex="1" parent="HAIDnJBw_TWGb5qqiBey-31">
          <mxGeometry y="78" width="160" height="26" as="geometry" />
        </mxCell>
        <mxCell id="HAIDnJBw_TWGb5qqiBey-46" style="edgeStyle=orthogonalEdgeStyle;rounded=0;orthogonalLoop=1;jettySize=auto;html=1;entryX=0.494;entryY=1.038;entryDx=0;entryDy=0;entryPerimeter=0;" edge="1" parent="WIyWlLk6GJQsqaUBKTNV-1" source="HAIDnJBw_TWGb5qqiBey-39" target="HAIDnJBw_TWGb5qqiBey-30">
          <mxGeometry relative="1" as="geometry" />
        </mxCell>
        <mxCell id="HAIDnJBw_TWGb5qqiBey-50" style="edgeStyle=orthogonalEdgeStyle;rounded=0;orthogonalLoop=1;jettySize=auto;html=1;entryX=0.25;entryY=0;entryDx=0;entryDy=0;" edge="1" parent="WIyWlLk6GJQsqaUBKTNV-1" source="HAIDnJBw_TWGb5qqiBey-39" target="HAIDnJBw_TWGb5qqiBey-1">
          <mxGeometry relative="1" as="geometry" />
        </mxCell>
        <mxCell id="HAIDnJBw_TWGb5qqiBey-39" value="«interface»&lt;br&gt;&lt;b&gt;IFood&lt;/b&gt;" style="html=1;whiteSpace=wrap;" vertex="1" parent="WIyWlLk6GJQsqaUBKTNV-1">
          <mxGeometry x="273" y="310" width="110" height="50" as="geometry" />
        </mxCell>
        <mxCell id="HAIDnJBw_TWGb5qqiBey-48" style="edgeStyle=orthogonalEdgeStyle;rounded=0;orthogonalLoop=1;jettySize=auto;html=1;exitX=0.5;exitY=0;exitDx=0;exitDy=0;entryX=0.506;entryY=1;entryDx=0;entryDy=0;entryPerimeter=0;" edge="1" parent="WIyWlLk6GJQsqaUBKTNV-1" source="HAIDnJBw_TWGb5qqiBey-40" target="HAIDnJBw_TWGb5qqiBey-20">
          <mxGeometry relative="1" as="geometry" />
        </mxCell>
        <mxCell id="HAIDnJBw_TWGb5qqiBey-51" style="edgeStyle=orthogonalEdgeStyle;rounded=0;orthogonalLoop=1;jettySize=auto;html=1;entryX=0.75;entryY=0;entryDx=0;entryDy=0;" edge="1" parent="WIyWlLk6GJQsqaUBKTNV-1" source="HAIDnJBw_TWGb5qqiBey-40" target="HAIDnJBw_TWGb5qqiBey-1">
          <mxGeometry relative="1" as="geometry" />
        </mxCell>
        <mxCell id="HAIDnJBw_TWGb5qqiBey-40" value="«interface»&lt;br&gt;&lt;b&gt;IEmpoyee&lt;/b&gt;" style="html=1;whiteSpace=wrap;" vertex="1" parent="WIyWlLk6GJQsqaUBKTNV-1">
          <mxGeometry x="459" y="310" width="110" height="50" as="geometry" />
        </mxCell>
        <mxCell id="HAIDnJBw_TWGb5qqiBey-42" style="edgeStyle=orthogonalEdgeStyle;rounded=0;orthogonalLoop=1;jettySize=auto;html=1;" edge="1" parent="WIyWlLk6GJQsqaUBKTNV-1" source="HAIDnJBw_TWGb5qqiBey-41" target="HAIDnJBw_TWGb5qqiBey-31">
          <mxGeometry relative="1" as="geometry" />
        </mxCell>
        <mxCell id="HAIDnJBw_TWGb5qqiBey-49" style="edgeStyle=orthogonalEdgeStyle;rounded=0;orthogonalLoop=1;jettySize=auto;html=1;entryX=0;entryY=0.5;entryDx=0;entryDy=0;" edge="1" parent="WIyWlLk6GJQsqaUBKTNV-1" source="HAIDnJBw_TWGb5qqiBey-41" target="HAIDnJBw_TWGb5qqiBey-3">
          <mxGeometry relative="1" as="geometry" />
        </mxCell>
        <mxCell id="HAIDnJBw_TWGb5qqiBey-41" value="«interface»&lt;br&gt;&lt;b&gt;IAnimal&lt;/b&gt;" style="html=1;whiteSpace=wrap;" vertex="1" parent="WIyWlLk6GJQsqaUBKTNV-1">
          <mxGeometry x="89" y="310" width="110" height="50" as="geometry" />
        </mxCell>
      </root>
    </mxGraphModel>
  </diagram>
</mxfile>
